<svg xmlns="http://www.w3.org/2000/svg" viewBox="0 0 512 512">
  <defs>
    <linearGradient id="bg" x1="0" y1="0" x2="1" y2="1">
      <stop offset="0%" stop-color="#0f172a"/>
      <stop offset="100%" stop-color="#1f2937"/>
    </linearGradient>
    <linearGradient id="accent" x1="0" y1="0" x2="0" y2="1">
      <stop offset="0%" stop-color="#00c3ff"/>
      <stop offset="100%" stop-color="#00ff9d"/>
    </linearGradient>
  </defs>
  <rect x="24" y="24" width="464" height="464" rx="112" fill="url(#bg)"/>
  <path d="M168 154c0-27 21-48 48-48h80c27 0 48 21 48 48v154c0 44-36 80-80 80h-16c-44 0-80-36-80-80V154z" fill="none" stroke="url(#accent)" stroke-width="24" stroke-linecap="round"/>
  <path d="M256 110v278" stroke="#38bdf8" stroke-width="14" stroke-linecap="round"/>
  <path d="M214 126v220" stroke="#c4b5fd" stroke-width="9" opacity="0.85"/>
  <path d="M232 120v238" stroke="#c4b5fd" stroke-width="9" opacity="0.85"/>
  <path d="M280 120v238" stroke="#c4b5fd" stroke-width="9" opacity="0.85"/>
  <path d="M298 126v220" stroke="#c4b5fd" stroke-width="9" opacity="0.85"/>
  <rect x="186" y="88" width="140" height="24" rx="10" fill="#22d3ee"/>
</svg>
